:FULLY-SPECIFIED
:FORCE-ALL-JOINTS-BE-3DOF
:DEGREES
178
root 8.23063 16.6368 -12.1359 7.54566 7.66037 -2.60604
lfemur -19.4577 6.79304 -14.1243
ltibia 51.3118 -0 0
lfoot -1.86272 13.8801 -0.0710959
ltoes -15.5064 0 0
rfemur -18.3174 1.74567 27.3446
rtibia 24.3218 -0 0
rfoot -14.5935 2.91527 -0.150937
rtoes -12.4875 0 0
lowerback -4.71662 -0.469683 1.04056
upperback -1.32906 -0.733631 3.61971
thorax 1.32632 -0.360528 3.15519
lowerneck -17.888 -7.22447 -14.6616
upperneck 14.0635 -8.90896 15.0888
head 8.70548 -3.62058 6.39228
lclavicle 2.61402e-14 3.18055e-15 0
lhumerus -47.8784 -11.1986 97.0416
lradius 26.1237 -0 0
lwrist 5.79119 0 0
lhand -3.37274 -19.7452 0.0944271
lfingers 7.12502 -0 0
lthumb 22.3499 8.90919 0.0712491
rclavicle 2.61402e-14 3.18055e-15 0
rhumerus -42.0167 10.3269 -81.1834
rradius 40.2335 -0 0
rwrist -21.4844 0 0
rhand -29.7067 -27.7851 0.0221689
rfingers 7.12502 -0 0
rthumb -3.03404 -57.7315 0.020584
179
root 8.23147 16.6343 -12.0098 7.52829 7.47632 -2.71348
lfemur -20.4342 6.56521 -14.1624
ltibia 50.3296 -0 0
lfoot -2.36127 13.8595 -0.06371
ltoes -15.6736 0 0
rfemur -17.52 1.87564 27.551
rtibia 23.7391 -0 0
rfoot -14.8407 3.02175 -0.153379
rtoes -12.307 0 0
lowerback -4.75891 -0.367126 1.1216
upperback -1.29196 -0.603574 3.62428
thorax 1.38246 -0.29573 3.1245
lowerneck -17.8164 -7.21272 -14.6614
upperneck 14.0581 -8.90428 15.1014
head 8.69067 -3.62016 6.39814
lclavicle 2.61402e-14 3.18055e-15 0
lhumerus -48.0124 -11.1462 97.042
lradius 26.1858 -0 0
lwrist 5.99413 0 0
lhand -3.71199 -19.9017 0.103344
lfingers 7.12502 -0 0
lthumb 22.0238 8.7854 0.0780776
rclavicle 2.61402e-14 3.18055e-15 0
rhumerus -41.7031 10.3792 -81.1421
rradius 40.7732 -0 0
rwrist -21.7334 0 0
rhand -29.8613 -27.8801 0.0227947
rfingers 7.12502 -0 0
rthumb -3.18327 -57.8236 0.021141
180
root 8.23232 16.6317 -11.8836 7.50999 7.28605 -2.8189
lfemur -21.4148 6.32658 -14.2042
ltibia 49.2965 -0 0
lfoot -2.87903 13.8302 -0.0554423
ltoes -15.8385 0 0
rfemur -16.7131 2.0131 27.7526
rtibia 23.1445 -0 0
rfoot -15.0967 3.12221 -0.154575
rtoes -12.1274 0 0
lowerback -4.80425 -0.263572 1.20021
upperback -1.25409 -0.472258 3.62807
thorax 1.44129 -0.230306 3.09426
lowerneck -17.7442 -7.19961 -14.6603
upperneck 14.0569 -8.89808 15.1121
head 8.67677 -3.61915 6.40353
lclavicle 2.61402e-14 3.18055e-15 0
lhumerus -48.1397 -11.1001 97.0426
lradius 26.2456 -0 0
lwrist 6.2032 0 0
lhand -4.06356 -20.0645 0.111595
lfingers 7.12502 -0 0
lthumb 21.6858 8.65648 0.0844057
rclavicle 2.61402e-14 3.18055e-15 0
rhumerus -41.3853 10.4306 -81.1012
rradius 41.3218 -0 0
rwrist -21.9864 0 0
rhand -30.0193 -27.9745 0.0231655
rfingers 7.12502 -0 0
rthumb -3.3359 -57.9151 0.0214591
181
root 8.23316 16.6292 -11.7575 7.49098 7.09002 -2.92216
lfemur -22.3976 6.07852 -14.2489
ltibia 48.2185 -0 0
lfoot -3.41352 13.7924 -0.0465088
ltoes -16.0004 0 0
rfemur -15.8983 2.15692 27.9496
rtibia 22.5406 -0 0
rfoot -15.3593 3.21693 -0.154585
rtoes -11.9493 0 0
lowerback -4.85236 -0.159246 1.27632
upperback -1.21566 -0.339969 3.63108
thorax 1.50244 -0.164393 3.0645
lowerneck -17.6714 -7.18521 -14.6585
upperneck 14.0595 -8.89043 15.1209
head 8.66376 -3.61758 6.40849
lclavicle 2.61402e-14 3.18055e-15 0
lhumerus -48.2604 -11.0597 97.0431
lradius 26.3185 -0 0
lwrist 6.41698 0 0
lhand -4.42581 -20.2329 0.119033
lfingers 7.12502 -0 0
lthumb 21.3375 8.52306 0.0901216
rclavicle 2.61402e-14 3.18055e-15 0
rhumerus -41.0647 10.4809 -81.0607
rradius 41.8774 -0 0
rwrist -22.2425 0 0
rhand -30.1803 -28.0678 0.0232767
rfingers 7.12502 -0 0
rthumb -3.49128 -58.0054 0.0215341
182
root 8.23401 16.6267 -11.6314 7.47149 6.88871 -3.02312
lfemur -23.3806 5.82244 -14.2959
ltibia 47.1017 -0 0
lfoot -3.96225 13.7468 -0.0371217
ltoes -16.1585 0 0
rfemur -15.0772 2.30597 28.1419
rtibia 21.9298 -0 0
rfoot -15.6264 3.30621 -0.153474
rtoes -11.7731 0 0
lowerback -4.90293 -0.0543768 1.34985
upperback -1.17688 -0.206991 3.63332
thorax 1.56551 -0.0981317 3.03521
lowerneck -17.5985 -7.16962 -14.6559
upperneck 14.0657 -8.88141 15.128
head 8.65165 -3.61548 6.41304
lclavicle 2.61402e-14 3.18055e-15 0
lhumerus -48.3747 -11.0244 97.0431
lradius 26.3978 -0 0
lwrist 6.63407 0 0
lhand -4.79709 -20.4061 0.12553
lfingers 7.12502 -0 0
lthumb 20.9806 8.38575 0.0951258
rclavicle 2.61402e-14 3.18055e-15 0
rhumerus -40.7424 10.53 -81.021
rradius 42.4379 -0 0
rwrist -22.5008 0 0
rhand -30.3434 -28.1597 0.0231275
rfingers 7.12502 -0 0
rthumb -3.64878 -58.0943 0.0213659
183
root 8.23485 16.6242 -11.5053 7.45174 6.68258 -3.12164
lfemur -24.362 5.55977 -14.3448
ltibia 45.9521 -0 0
lfoot -4.52273 13.6938 -0.0274873
ltoes -16.3121 0 0
rfemur -14.2513 2.45915 28.3292
rtibia 21.3147 -0 0
rfoot -15.8959 3.39034 -0.151312
rtoes -11.5992 0 0
lowerback -4.95568 0.0508091 1.42075
upperback -1.13795 -0.0736108 3.63476
thorax 1.63014 -0.03166 3.00644
lowerneck -17.5256 -7.15295 -14.6525
upperneck 14.0755 -8.87111 15.1333
head 8.64043 -3.61285 6.41721
lclavicle 2.61402e-14 3.18055e-15 0
lhumerus -48.4827 -10.9935 97.0423
lradius 26.4827 -0 0
lwrist 6.85306 0 0
lhand -5.17578 -20.5833 0.130975
lfingers 7.12502 -0 0
lthumb 20.6165 8.24517 0.0993323
rclavicle 2.61402e-14 3.18055e-15 0
rhumerus -40.4197 10.5778 -80.9823
rradius 43.0015 -0 0
rwrist -22.7605 0 0
rhand -30.508 -28.2499 0.0227216
rfingers 7.12502 -0 0
rthumb -3.80776 -58.1815 0.0209585
184
root 8.2357 16.6216 -11.3792 7.43196 6.47209 -3.21758
lfemur -25.34 5.29194 -14.395
ltibia 44.7758 -0 0
lfoot -5.09249 13.6337 -0.0178034
ltoes -16.4606 0 0
rfemur -13.4224 2.6154 28.5116
rtibia 20.6978 -0 0
rfoot -16.1657 3.46961 -0.148176
rtoes -11.428 0 0
lowerback -5.01032 0.156082 1.48895
upperback -1.09908 0.0598877 3.63542
thorax 1.69593 0.034882 2.97819
lowerneck -17.453 -7.13527 -14.6485
upperneck 14.0886 -8.8596 15.1371
head 8.6301 -3.60973 6.421
lclavicle 2.61402e-14 3.18055e-15 0
lhumerus -48.5844 -10.9666 97.0405
lradius 26.5721 -0 0
lwrist 7.07253 0 0
lhand -5.56021 -20.7638 0.135274
lfingers 7.12502 -0 0
lthumb 20.247 8.10195 0.102669
rclavicle 2.61402e-14 3.18055e-15 0
rhumerus -40.0978 10.6241 -80.945
rradius 43.5661 -0 0
rwrist -23.0206 0 0
rhand -30.6735 -28.3381 0.022067
rfingers 7.12502 -0 0
rthumb -3.96757 -58.2666 0.0203195
185
root 8.23654 16.6191 -11.2531 7.41236 6.25772 -3.31081
lfemur -26.3126 5.02041 -14.4462
ltibia 43.5788 -0 0
lfoot -5.66902 13.567 -0.00825742
ltoes -16.6032 0 0
rfemur -12.5919 2.77363 28.6889
rtibia 20.0817 -0 0
rfoot -16.4337 3.54432 -0.144141
rtoes -11.2601 0 0
lowerback -5.06655 0.261213 1.55439
upperback -1.06048 0.193219 3.63529
thorax 1.7625 0.101354 2.95047
lowerneck -17.3809 -7.11667 -14.6438
upperneck 14.1047 -8.84698 15.1395
head 8.62065 -3.60614 6.42446
lclavicle 2.61402e-14 3.18055e-15 0
lhumerus -48.6802 -10.9431 97.0372
lradius 26.665 -0 0
lwrist 7.29108 0 0
lhand -5.94875 -20.9467 0.138354
lfingers 7.12502 -0 0
lthumb 19.8735 7.9567 0.105078
rclavicle 2.61402e-14 3.18055e-15 0
rhumerus -39.7779 10.6689 -80.9092
rradius 44.1298 -0 0
rwrist -23.2803 0 0
rhand -30.8392 -28.4238 0.0211756
rfingers 7.12502 -0 0
rthumb -4.12759 -58.3492 0.0194608
186
root 8.23739 16.6166 -11.127 7.39315 6.03992 -3.4012
lfemur -27.278 4.74665 -14.4981
ltibia 42.3673 -0 0
lfoot -6.24985 13.4943 0.000975199
ltoes -16.7392 0 0
rfemur -11.7616 2.9328 28.8607
rtibia 19.4689 -0 0
rfoot -16.6979 3.61476 -0.139291
rtoes -11.0958 0 0
lowerback -5.12409 0.365969 1.61701
upperback -1.02236 0.326097 3.63435
thorax 1.82947 0.167616 2.9233
lowerneck -17.3095 -7.09726 -14.6386
upperneck 14.1238 -8.83331 15.1405
head 8.61207 -3.60209 6.4276
lclavicle 2.61402e-14 3.18055e-15 0
lhumerus -48.77 -10.9223 97.0323
lradius 26.7603 -0 0
lwrist 7.5073 0 0
lhand -6.33974 -21.1313 0.140163
lfingers 7.12502 -0 0
lthumb 19.4976 7.81004 0.10652
rclavicle 2.61402e-14 3.18055e-15 0
rhumerus -39.4612 10.712 -80.8752
rradius 44.6906 -0 0
rwrist -23.5387 0 0
rhand -31.0045 -28.5067 0.0200635
rfingers 7.12502 -0 0
rthumb -4.28716 -58.4291 0.0183977
187
root 8.23823 16.6141 -11.0009 7.37453 5.81918 -3.48863
lfemur -28.2345 4.47214 -14.5504
ltibia 41.1471 -0 0
lfoot -6.83247 13.4159 0.00973302
ltoes -16.8679 0 0
rfemur -10.9331 3.09189 29.027
rtibia 18.862 -0 0
rfoot -16.956 3.68123 -0.133706
rtoes -10.9355 0 0
lowerback -5.18265 0.470119 1.67674
upperback -0.98492 0.458238 3.63261
thorax 1.89645 0.233527 2.8967
lowerneck -17.2392 -7.07712 -14.6327
upperneck 14.1455 -8.81869 15.1404
head 8.60437 -3.59762 6.43045
lclavicle 2.61402e-14 3.18055e-15 0
lhumerus -48.854 -10.9036 97.0253
lradius 26.8569 -0 0
lwrist 7.71978 0 0
lhand -6.73156 -21.3168 0.140667
lfingers 7.12502 -0 0
lthumb 19.121 7.66261 0.106967
rclavicle 2.61402e-14 3.18055e-15 0
rhumerus -39.1491 10.7534 -80.8434
rradius 45.2466 -0 0
rwrist -23.7948 0 0
rhand -31.1686 -28.5865 0.0187506
rfingers 7.12502 -0 0
rthumb -4.44565 -58.5059 0.0171493
188
root 8.23908 16.6115 -10.8748 7.35673 5.59597 -3.57295
lfemur -29.1801 4.19838 -14.6031
ltibia 39.9244 -0 0
lfoot -7.41441 13.3323 0.0178698
ltoes -16.9886 0 0
rfemur -10.108 3.24987 29.1873
rtibia 18.2634 -0 0
rfoot -17.2062 3.74403 -0.127471
rtoes -10.7798 0 0
lowerback -5.24193 0.57343 1.73354
upperback -0.948374 0.589356 3.63004
thorax 1.96307 0.298945 2.87066
lowerneck -17.1701 -7.05633 -14.6264
upperneck 14.1698 -8.80319 15.1391
head 8.59754 -3.59274 6.43304
lclavicle 2.61402e-14 3.18055e-15 0
lhumerus -48.9324 -10.8865 97.0159
lradius 26.954 -0 0
lwrist 7.92711 0 0
lhand -7.12255 -21.5025 0.139857
lfingers 7.12502 -0 0
lthumb 18.7452 7.51503 0.106411
rclavicle 2.61402e-14 3.18055e-15 0
rhumerus -38.8426 10.793 -80.8139
rradius 45.7957 -0 0
rwrist -24.0479 0 0
rhand -31.331 -28.6628 0.0172606
rfingers 7.12502 -0 0
rthumb -4.60243 -58.5793 0.0157382
189
root 8.23992 16.609 -10.7487 7.33993 5.37075 -3.65406
lfemur -30.1131 3.92688 -14.6558
ltibia 38.7053 -0 0
lfoot -7.99317 13.244 0.0252558
ltoes -17.1006 0 0
rfemur -9.28796 3.40574 29.3413
rtibia 17.6758 -0 0
rfoot -17.4461 3.80344 -0.12067
rtoes -10.6291 0 0
lowerback -5.30166 0.675667 1.78735
upperback -0.912928 0.719165 3.62664
thorax 2.02894 0.363729 2.84522
lowerneck -17.1026 -7.035 -14.6196
upperneck 14.1963 -8.78689 15.1368
head 8.59157 -3.58748 6.43538
lclavicle 2.61402e-14 3.18055e-15 0
lhumerus -49.0053 -10.8705 97.0038
lradius 27.0504 -0 0
lwrist 8.12788 0 0
lhand -7.51106 -21.6874 0.137743
lfingers 7.12502 -0 0
lthumb 18.3717 7.36791 0.104859
rclavicle 2.61402e-14 3.18055e-15 0
rhumerus -38.5431 10.8306 -80.7871
rradius 46.3361 -0 0
rwrist -24.297 0 0
rhand -31.4909 -28.7354 0.0156205
rfingers 7.12502 -0 0
rthumb -4.75685 -58.6489 0.0141899
190
root 8.24077 16.6065 -10.6226 7.32435 5.14399 -3.73182
lfemur -31.0316 3.65914 -14.7087
ltibia 37.4957 -0 0
lfoot -8.56626 13.1514 0.0317789
ltoes -17.2031 0 0
rfemur -8.47474 3.55853 29.4888
rtibia 17.1016 -0 0
rfoot -17.6738 3.85978 -0.113385
rtoes -10.4838 0 0
lowerback -5.36155 0.776597 1.8381
upperback -0.87879 0.847381 3.6224
thorax 2.09368 0.427736 2.82036
lowerneck -17.0367 -7.01322 -14.6123
upperneck 14.225 -8.76987 15.1337
head 8.58646 -3.58186 6.4375
lclavicle 2.61402e-14 3.18055e-15 0
lhumerus -49.0728 -10.8548 96.9888
lradius 27.1451 -0 0
lwrist 8.32068 0 0
lhand -7.89545 -21.8709 0.134355
lfingers 7.12502 -0 0
lthumb 18.0022 7.22189 0.102333
rclavicle 2.61402e-14 3.18055e-15 0
rhumerus -38.2518 10.8662 -80.7632
rradius 46.8658 -0 0
rwrist -24.5412 0 0
rhand -31.6477 -28.8037 0.0138606
rfingers 7.12502 -0 0
rthumb -4.90828 -58.7144 0.0125332
